<svg width="60" height="60" viewBox="0 0 60 60" fill="none" xmlns="http://www.w3.org/2000/svg">
<path d="M30 0C13.5 0 0 13.5241 0 30.1808C0 45.241 10.98 57.741 25.32 60V38.9156H17.7V30.1808H25.32V23.524C25.32 15.9639 29.79 11.8072 36.66 11.8072C39.9299 11.8072 43.3499 12.3795 43.3499 12.3795V19.8193H39.57C35.85 19.8193 34.68 22.1386 34.68 24.518V30.1808H43.0199L41.6699 38.9156H34.68V60C41.7491 58.879 48.1865 55.2576 52.8297 49.7894C57.4727 44.3212 60.0159 37.3664 59.9999 30.1808C59.9999 13.5241 46.4999 0 30 0Z" fill="#EBEBEB"/>
</svg>
