<svg width="60" height="60" viewBox="0 0 60 60" fill="none" xmlns="http://www.w3.org/2000/svg">
<path d="M30 0C13.432 0 0 13.4314 0 30C0 46.5686 13.432 60 30 60C46.568 60 60 46.5686 60 30C60 13.4314 46.568 0 30 0ZM45.2176 33.2446C46.6158 34.6104 48.0952 35.8956 49.3504 37.4026C49.9064 38.0692 50.4306 38.7584 50.8296 39.5338C51.3992 40.6392 50.885 41.8514 49.8954 41.9172L43.7494 41.916C42.162 42.0472 40.8988 41.407 39.8338 40.3218C38.9838 39.457 38.195 38.5332 37.3762 37.6388C37.0416 37.2718 36.6894 36.9262 36.2694 36.6544C35.4316 36.1092 34.7036 36.2762 34.2236 37.1516C33.7344 38.0422 33.6228 39.0292 33.576 40.0204C33.5092 41.4696 33.0722 41.8484 31.618 41.9166C28.5108 42.062 25.5628 41.5906 22.8228 40.0242C20.4056 38.6424 18.5346 36.6924 16.9043 34.4846C13.7297 30.1804 11.2984 25.4566 9.11386 20.597C8.6222 19.5026 8.9819 18.917 10.1893 18.8943C12.1952 18.8557 14.2011 18.8606 16.2071 18.8925C17.0234 18.9054 17.5636 19.3725 17.8772 20.1428C18.9612 22.8098 20.2902 25.3474 21.9554 27.7006C22.3992 28.3274 22.8522 28.9522 23.4972 29.3948C24.2094 29.8834 24.752 29.722 25.0876 28.927C25.3026 28.4218 25.3952 27.8818 25.4418 27.3404C25.6014 25.486 25.6204 23.6324 25.3442 21.7854C25.1724 20.6296 24.5224 19.8832 23.3702 19.6647C22.7834 19.5536 22.8694 19.3363 23.1548 19.0011C23.6502 18.4217 24.1142 18.0632 25.0416 18.0632L31.9856 18.062C33.0802 18.2768 33.3256 18.7679 33.4742 19.8703L33.4804 27.5872C33.4674 28.0138 33.6946 29.2782 34.4606 29.5574C35.0744 29.76 35.4794 29.2678 35.8466 28.8792C37.5118 27.112 38.6984 25.0262 39.7608 22.8676C40.2298 21.9154 40.6342 20.9304 41.0272 19.9433C41.3192 19.2135 41.7736 18.8544 42.5972 18.8667L49.284 18.8747C49.4812 18.8747 49.6812 18.8765 49.8764 18.9103C51.0034 19.103 51.3122 19.5879 50.9634 20.6872C50.4148 22.4146 49.3486 23.8532 48.3062 25.2958C47.1892 26.8402 45.9978 28.3304 44.8916 29.8816C43.8752 31.2994 43.9556 32.0132 45.2176 33.2446Z" fill="#EBEBEB"/>
</svg>
