<svg width="60" height="60" viewBox="0 0 60 60" fill="none" xmlns="http://www.w3.org/2000/svg">
<path d="M24.2578 30C24.2578 33.1714 26.8286 35.7422 30 35.7422C33.1714 35.7422 35.7422 33.1714 35.7422 30C35.7422 26.8286 33.1714 24.2578 30 24.2578C26.8286 24.2578 24.2578 26.8286 24.2578 30Z" fill="#EBEBEB"/>
<path d="M16.5709 19.8398C16.847 19.0918 17.2873 18.4148 17.8596 17.8591C18.4153 17.2869 19.0919 16.8465 19.8403 16.5705C20.4474 16.3347 21.3592 16.0541 23.0388 15.9777C24.8556 15.8948 25.4004 15.877 30 15.877C34.6 15.877 35.1448 15.8943 36.9612 15.9772C38.6406 16.0541 39.553 16.3347 40.1596 16.5705C40.908 16.8465 41.585 17.2869 42.1402 17.8591C42.7124 18.4148 43.1528 19.0914 43.4294 19.8398C43.665 20.4468 43.9456 21.3592 44.0222 23.0386C44.105 24.855 44.1228 25.3998 44.1228 29.9998C44.1228 34.5994 44.105 35.1442 44.0222 36.961C43.9456 38.6406 43.665 39.5524 43.4294 40.1594C43.1528 40.908 42.713 41.5846 42.1408 42.1402C41.585 42.7124 40.9084 43.1528 40.16 43.4288C39.553 43.665 38.6406 43.9456 36.9612 44.022C35.1448 44.105 34.6004 44.1224 30.0004 44.1224C25.3998 44.1224 24.8552 44.105 23.0392 44.022C21.3596 43.9456 20.4474 43.665 19.8403 43.4288C18.3379 42.8494 17.1505 41.6618 16.5709 40.1594C16.3352 39.5524 16.0546 38.6406 15.9777 36.961C15.8948 35.1442 15.8774 34.5994 15.8774 29.9998C15.8774 25.3998 15.8948 24.855 15.9777 23.0386C16.0541 21.3592 16.3347 20.4468 16.5709 19.8398ZM30 38.8452C34.8856 38.8452 38.8462 34.8852 38.8462 29.9994C38.8462 25.1138 34.8856 21.1536 30 21.1536C25.1146 21.1536 21.154 25.1138 21.154 29.9994C21.154 34.8852 25.1146 38.8452 30 38.8452ZM20.8044 22.8712C21.946 22.8712 22.8716 21.9456 22.8716 20.8038C22.8716 19.6622 21.946 18.7366 20.8044 18.7366C19.6627 18.7366 18.7371 19.6622 18.7371 20.8038C18.7375 21.9456 19.6627 22.8712 20.8044 22.8712Z" fill="#EBEBEB"/>
<path d="M30 0C46.566 0 60 13.434 60 30C60 46.566 46.566 60 30 60C13.434 60 0 46.566 0 30C0 13.434 13.434 0 30 0ZM12.8773 37.1022C12.9607 38.936 13.2523 40.188 13.678 41.2838C14.5729 43.5978 16.4021 45.427 18.7161 46.322C19.8116 46.7478 21.064 47.0388 22.8974 47.1226C24.7344 47.2064 25.3212 47.2266 29.9996 47.2266C34.6784 47.2266 35.2648 47.2064 37.1022 47.1226C38.9356 47.0388 40.188 46.7478 41.2834 46.322C42.4334 45.8894 43.4742 45.2114 44.3348 44.3348C45.211 43.4748 45.889 42.4334 46.3216 41.2838C46.7472 40.1884 47.0388 38.936 47.1222 37.1026C47.2068 35.2652 47.2266 34.6784 47.2266 30C47.2266 25.3216 47.2068 24.7348 47.1226 22.8978C47.0394 21.064 46.7482 19.812 46.3224 18.7161C45.8898 17.5667 45.2114 16.5253 44.3348 15.6651C43.4748 14.7885 42.4334 14.1106 41.2838 13.678C40.188 13.2523 38.936 12.9611 37.1022 12.8773C35.2652 12.7936 34.6784 12.7734 30 12.7734C25.3216 12.7734 24.7348 12.7936 22.8978 12.8778C21.064 12.9611 19.812 13.2523 18.7161 13.6775C17.5667 14.1101 16.5253 14.7885 15.6647 15.6651C14.7885 16.5257 14.1101 17.5667 13.678 18.7161C13.2518 19.812 12.9607 21.064 12.8769 22.8978C12.7931 24.7348 12.7734 25.3216 12.7734 30C12.7734 34.6784 12.7931 35.2652 12.8773 37.1022Z" fill="#EBEBEB"/>
</svg>
